<svg width="48" height="46" viewBox="0 0 48 46" fill="none" xmlns="http://www.w3.org/2000/svg">
<path d="M6.67962 9.09816L12.0707 3.70711C12.4612 3.31658 13.0944 3.31658 13.4849 3.70711L21.8484 12.0707C22.239 12.4612 22.239 13.0944 21.8484 13.4849L18.1763 17.157C17.872 17.4614 17.7965 17.9263 17.989 18.3113L19.1269 20.5872C21.3525 25.0383 24.9617 28.6475 29.4128 30.8731L31.6887 32.011C32.0737 32.2035 32.5386 32.128 32.843 31.8237L36.5151 28.1516C36.9056 27.761 37.5388 27.761 37.9293 28.1516L46.2929 36.5151C46.6834 36.9056 46.6834 37.5388 46.2929 37.9293L40.9018 43.3204C38.7905 45.4317 35.4479 45.6693 33.0592 43.8777L20.2952 34.3048C18.5517 32.9971 17.0029 31.4483 15.6952 29.7048L6.12226 16.9408C4.33072 14.5521 4.56827 11.2095 6.67962 9.09816Z" stroke="#222222"/>
</svg>
